<svg width="124" height="51" viewBox="0 0 124 51" fill="none" xmlns="http://www.w3.org/2000/svg">
<path d="M12.0288 33.1382C16.2686 32.1371 18.8941 27.8886 17.893 23.6489C16.8918 19.4093 12.6432 16.7839 8.40331 17.785C4.16346 18.7861 1.53797 23.0346 2.53912 27.2743C3.54027 31.5139 7.78894 34.1393 12.0288 33.1382Z" fill="white"/>
<path d="M32.8062 14.5214V12.6214H36.3462C37.0528 12.6214 37.5995 12.4414 37.9862 12.0814C38.3862 11.7081 38.5862 11.1948 38.5862 10.5414C38.5862 9.95476 38.3928 9.46143 38.0062 9.06142C37.6195 8.66143 37.0728 8.46143 36.3662 8.46143H32.8062V6.46142H36.4662C37.3462 6.46142 38.1195 6.64142 38.7862 7.00143C39.4528 7.34809 39.9662 7.82809 40.3262 8.44143C40.6995 9.04142 40.8862 9.72809 40.8862 10.5014C40.8862 11.3148 40.6995 12.0214 40.3262 12.6214C39.9662 13.2214 39.4528 13.6881 38.7862 14.0214C38.1195 14.3548 37.3462 14.5214 36.4662 14.5214H32.8062ZM31.2262 20.4614V6.46142H33.5262V20.4614H31.2262ZM38.9062 20.4614L34.0062 14.3814L36.1462 13.6014L41.8062 20.4614H38.9062ZM46.9384 20.6614C46.0717 20.6614 45.285 20.4414 44.5784 20.0014C43.885 19.5614 43.3317 18.9681 42.9184 18.2214C42.5184 17.4614 42.3184 16.6148 42.3184 15.6814C42.3184 14.7348 42.5184 13.8881 42.9184 13.1414C43.3317 12.3814 43.885 11.7814 44.5784 11.3414C45.285 10.8881 46.0717 10.6614 46.9384 10.6614C47.6717 10.6614 48.3184 10.8214 48.8784 11.1414C49.4517 11.4481 49.905 11.8748 50.2384 12.4214C50.5717 12.9681 50.7384 13.5881 50.7384 14.2814V17.0414C50.7384 17.7348 50.5717 18.3548 50.2384 18.9014C49.9184 19.4481 49.4717 19.8814 48.8984 20.2014C48.325 20.5081 47.6717 20.6614 46.9384 20.6614ZM47.2984 18.5814C48.1117 18.5814 48.765 18.3081 49.2584 17.7614C49.765 17.2148 50.0184 16.5148 50.0184 15.6614C50.0184 15.0881 49.905 14.5814 49.6784 14.1414C49.4517 13.7014 49.1317 13.3614 48.7184 13.1214C48.3184 12.8681 47.845 12.7414 47.2984 12.7414C46.765 12.7414 46.2917 12.8681 45.8784 13.1214C45.4784 13.3614 45.1584 13.7014 44.9184 14.1414C44.6917 14.5814 44.5784 15.0881 44.5784 15.6614C44.5784 16.2348 44.6917 16.7414 44.9184 17.1814C45.1584 17.6214 45.4784 17.9681 45.8784 18.2214C46.2917 18.4614 46.765 18.5814 47.2984 18.5814ZM49.8784 20.4614V17.8814L50.2584 15.5414L49.8784 13.2214V10.8614H52.0784V20.4614H49.8784ZM61.0999 20.4614V14.9214C61.0999 14.2814 60.8933 13.7548 60.4799 13.3414C60.0799 12.9281 59.5599 12.7214 58.9199 12.7214C58.4933 12.7214 58.1133 12.8148 57.7799 13.0014C57.4466 13.1881 57.1866 13.4481 56.9999 13.7814C56.8133 14.1148 56.7199 14.4948 56.7199 14.9214L55.8599 14.4414C55.8599 13.7081 56.0199 13.0614 56.3399 12.5014C56.6599 11.9281 57.0999 11.4814 57.6599 11.1614C58.2333 10.8281 58.8733 10.6614 59.5799 10.6614C60.2999 10.6614 60.9399 10.8481 61.4999 11.2214C62.0599 11.5814 62.4999 12.0548 62.8199 12.6414C63.1399 13.2148 63.2999 13.8148 63.2999 14.4414V20.4614H61.0999ZM54.5199 20.4614V10.8614H56.7199V20.4614H54.5199ZM69.5356 24.6614C68.5222 24.6614 67.6356 24.4748 66.8756 24.1014C66.1156 23.7414 65.5022 23.2281 65.0356 22.5614L66.4756 21.1214C66.8622 21.6014 67.3022 21.9614 67.7956 22.2014C68.2889 22.4414 68.8822 22.5614 69.5756 22.5614C70.4422 22.5614 71.1289 22.3348 71.6356 21.8814C72.1422 21.4414 72.3956 20.8348 72.3956 20.0614V17.7014L72.7756 15.5814L72.3956 13.4414V10.8614H74.5956V20.0614C74.5956 20.9814 74.3822 21.7814 73.9556 22.4614C73.5289 23.1548 72.9356 23.6948 72.1756 24.0814C71.4156 24.4681 70.5356 24.6614 69.5356 24.6614ZM69.4356 20.2614C68.5822 20.2614 67.8089 20.0548 67.1156 19.6414C66.4356 19.2148 65.8956 18.6348 65.4956 17.9014C65.1089 17.1681 64.9156 16.3481 64.9156 15.4414C64.9156 14.5348 65.1089 13.7214 65.4956 13.0014C65.8956 12.2814 66.4356 11.7148 67.1156 11.3014C67.8089 10.8748 68.5822 10.6614 69.4356 10.6614C70.1956 10.6614 70.8622 10.8148 71.4356 11.1214C72.0089 11.4281 72.4556 11.8548 72.7756 12.4014C73.0956 12.9348 73.2556 13.5614 73.2556 14.2814V16.6414C73.2556 17.3481 73.0889 17.9748 72.7556 18.5214C72.4356 19.0681 71.9889 19.4948 71.4156 19.8014C70.8422 20.1081 70.1822 20.2614 69.4356 20.2614ZM69.8756 18.1814C70.4089 18.1814 70.8756 18.0681 71.2756 17.8414C71.6756 17.6148 71.9822 17.3014 72.1956 16.9014C72.4222 16.4881 72.5356 16.0081 72.5356 15.4614C72.5356 14.9148 72.4222 14.4414 72.1956 14.0414C71.9822 13.6281 71.6756 13.3081 71.2756 13.0814C70.8756 12.8548 70.4089 12.7414 69.8756 12.7414C69.3422 12.7414 68.8689 12.8548 68.4556 13.0814C68.0556 13.3081 67.7422 13.6281 67.5156 14.0414C67.2889 14.4414 67.1756 14.9148 67.1756 15.4614C67.1756 15.9948 67.2889 16.4681 67.5156 16.8814C67.7422 17.2948 68.0556 17.6148 68.4556 17.8414C68.8689 18.0681 69.3422 18.1814 69.8756 18.1814ZM81.4995 20.6614C80.5395 20.6614 79.6728 20.4481 78.8995 20.0214C78.1395 19.5814 77.5328 18.9814 77.0795 18.2214C76.6395 17.4614 76.4195 16.6081 76.4195 15.6614C76.4195 14.7148 76.6395 13.8681 77.0795 13.1214C77.5195 12.3614 78.1128 11.7614 78.8595 11.3214C79.6195 10.8814 80.4595 10.6614 81.3795 10.6614C82.2728 10.6614 83.0595 10.8681 83.7395 11.2814C84.4328 11.6948 84.9728 12.2614 85.3595 12.9814C85.7595 13.7014 85.9595 14.5214 85.9595 15.4414C85.9595 15.6014 85.9461 15.7681 85.9195 15.9414C85.9061 16.1014 85.8795 16.2814 85.8395 16.4814H77.9595V14.6814H84.6995L83.8795 15.4014C83.8528 14.8148 83.7395 14.3214 83.5395 13.9214C83.3395 13.5214 83.0528 13.2148 82.6795 13.0014C82.3195 12.7881 81.8728 12.6814 81.3395 12.6814C80.7795 12.6814 80.2928 12.8014 79.8795 13.0414C79.4661 13.2814 79.1461 13.6214 78.9195 14.0614C78.6928 14.4881 78.5795 15.0014 78.5795 15.6014C78.5795 16.2014 78.6995 16.7281 78.9395 17.1814C79.1795 17.6348 79.5195 17.9881 79.9595 18.2414C80.3995 18.4814 80.9061 18.6014 81.4795 18.6014C81.9728 18.6014 82.4261 18.5148 82.8395 18.3414C83.2661 18.1681 83.6261 17.9148 83.9195 17.5814L85.3195 19.0014C84.8528 19.5481 84.2861 19.9614 83.6195 20.2414C82.9528 20.5214 82.2461 20.6614 81.4995 20.6614ZM95.2345 20.4614V6.86143H97.5345V20.4614H95.2345ZM90.6745 8.56143V6.46142H102.094V8.56143H90.6745ZM105.717 20.6614C104.783 20.6614 103.937 20.4414 103.177 20.0014C102.417 19.5481 101.81 18.9414 101.357 18.1814C100.917 17.4214 100.697 16.5748 100.697 15.6414C100.697 14.7081 100.917 13.8681 101.357 13.1214C101.81 12.3748 102.417 11.7814 103.177 11.3414C103.937 10.8881 104.783 10.6614 105.717 10.6614C106.663 10.6614 107.517 10.8814 108.277 11.3214C109.037 11.7614 109.637 12.3614 110.077 13.1214C110.53 13.8681 110.757 14.7081 110.757 15.6414C110.757 16.5748 110.53 17.4214 110.077 18.1814C109.637 18.9414 109.037 19.5481 108.277 20.0014C107.517 20.4414 106.663 20.6614 105.717 20.6614ZM105.717 18.5414C106.263 18.5414 106.743 18.4214 107.157 18.1814C107.583 17.9281 107.91 17.5814 108.137 17.1414C108.377 16.7014 108.497 16.2014 108.497 15.6414C108.497 15.0814 108.377 14.5881 108.137 14.1614C107.897 13.7348 107.57 13.4014 107.157 13.1614C106.743 12.9081 106.263 12.7814 105.717 12.7814C105.183 12.7814 104.703 12.9081 104.277 13.1614C103.863 13.4014 103.537 13.7348 103.297 14.1614C103.07 14.5881 102.957 15.0814 102.957 15.6414C102.957 16.2014 103.07 16.7014 103.297 17.1414C103.537 17.5814 103.863 17.9281 104.277 18.1814C104.703 18.4214 105.183 18.5414 105.717 18.5414ZM117.726 20.6614C116.993 20.6614 116.34 20.5081 115.766 20.2014C115.193 19.8814 114.74 19.4481 114.406 18.9014C114.086 18.3548 113.926 17.7348 113.926 17.0414V14.2814C113.926 13.5881 114.093 12.9681 114.426 12.4214C114.76 11.8748 115.213 11.4481 115.786 11.1414C116.36 10.8214 117.006 10.6614 117.726 10.6614C118.593 10.6614 119.373 10.8881 120.066 11.3414C120.773 11.7814 121.326 12.3814 121.726 13.1414C122.14 13.8881 122.346 14.7348 122.346 15.6814C122.346 16.6148 122.14 17.4614 121.726 18.2214C121.326 18.9681 120.773 19.5614 120.066 20.0014C119.373 20.4414 118.593 20.6614 117.726 20.6614ZM117.366 18.5814C117.9 18.5814 118.366 18.4614 118.766 18.2214C119.18 17.9681 119.5 17.6214 119.726 17.1814C119.966 16.7414 120.086 16.2348 120.086 15.6614C120.086 15.0881 119.966 14.5814 119.726 14.1414C119.5 13.7014 119.18 13.3614 118.766 13.1214C118.366 12.8681 117.9 12.7414 117.366 12.7414C116.833 12.7414 116.36 12.8681 115.946 13.1214C115.533 13.3614 115.213 13.7014 114.986 14.1414C114.76 14.5814 114.646 15.0881 114.646 15.6614C114.646 16.2348 114.76 16.7414 114.986 17.1814C115.213 17.6214 115.533 17.9681 115.946 18.2214C116.36 18.4614 116.833 18.5814 117.366 18.5814ZM112.586 24.4614V10.8614H114.786V13.4414L114.406 15.7814L114.786 18.1014V24.4614H112.586ZM32.8062 40.1814V38.1814H36.3062C36.7862 38.1814 37.2062 38.0881 37.5662 37.9014C37.9395 37.7014 38.2328 37.4281 38.4462 37.0814C38.6595 36.7214 38.7662 36.3014 38.7662 35.8214C38.7662 35.3414 38.6595 34.9281 38.4462 34.5814C38.2328 34.2214 37.9395 33.9481 37.5662 33.7614C37.2062 33.5614 36.7862 33.4614 36.3062 33.4614H32.8062V31.4614H36.4262C37.3062 31.4614 38.0928 31.6414 38.7862 32.0014C39.4928 32.3614 40.0462 32.8681 40.4462 33.5214C40.8595 34.1748 41.0662 34.9414 41.0662 35.8214C41.0662 36.7014 40.8595 37.4681 40.4462 38.1214C40.0462 38.7748 39.4928 39.2814 38.7862 39.6414C38.0928 40.0014 37.3062 40.1814 36.4262 40.1814H32.8062ZM31.2262 45.4614V31.4614H33.5262V45.4614H31.2262ZM42.9965 45.4614V35.8614H45.1965V45.4614H42.9965ZM45.1965 40.1214L44.4365 39.7414C44.4365 38.5281 44.7032 37.5481 45.2365 36.8014C45.7832 36.0414 46.6032 35.6614 47.6965 35.6614C48.1765 35.6614 48.6098 35.7481 48.9965 35.9214C49.3832 36.0948 49.7432 36.3748 50.0765 36.7614L48.6365 38.2414C48.4632 38.0548 48.2698 37.9214 48.0565 37.8414C47.8432 37.7614 47.5965 37.7214 47.3165 37.7214C46.7032 37.7214 46.1965 37.9148 45.7965 38.3014C45.3965 38.6881 45.1965 39.2948 45.1965 40.1214ZM55.2481 45.6614C54.3147 45.6614 53.4681 45.4414 52.7081 45.0014C51.9481 44.5481 51.3414 43.9414 50.8881 43.1814C50.4481 42.4214 50.2281 41.5748 50.2281 40.6414C50.2281 39.7081 50.4481 38.8681 50.8881 38.1214C51.3414 37.3748 51.9481 36.7814 52.7081 36.3414C53.4681 35.8881 54.3147 35.6614 55.2481 35.6614C56.1947 35.6614 57.0481 35.8814 57.8081 36.3214C58.5681 36.7614 59.1681 37.3614 59.6081 38.1214C60.0614 38.8681 60.2881 39.7081 60.2881 40.6414C60.2881 41.5748 60.0614 42.4214 59.6081 43.1814C59.1681 43.9414 58.5681 44.5481 57.8081 45.0014C57.0481 45.4414 56.1947 45.6614 55.2481 45.6614ZM55.2481 43.5414C55.7947 43.5414 56.2747 43.4214 56.6881 43.1814C57.1147 42.9281 57.4414 42.5814 57.6681 42.1414C57.9081 41.7014 58.0281 41.2014 58.0281 40.6414C58.0281 40.0814 57.9081 39.5881 57.6681 39.1614C57.4281 38.7348 57.1014 38.4014 56.6881 38.1614C56.2747 37.9081 55.7947 37.7814 55.2481 37.7814C54.7147 37.7814 54.2347 37.9081 53.8081 38.1614C53.3947 38.4014 53.0681 38.7348 52.8281 39.1614C52.6014 39.5881 52.4881 40.0814 52.4881 40.6414C52.4881 41.2014 52.6014 41.7014 52.8281 42.1414C53.0681 42.5814 53.3947 42.9281 53.8081 43.1814C54.2347 43.4214 54.7147 43.5414 55.2481 43.5414ZM63.3041 45.4614V31.8614H65.5041V45.4614H63.3041ZM61.0041 37.8614V35.8614H67.8041V37.8614H61.0041ZM73.5893 45.6614C72.6293 45.6614 71.7626 45.4481 70.9893 45.0214C70.2293 44.5814 69.6226 43.9814 69.1693 43.2214C68.7293 42.4614 68.5093 41.6081 68.5093 40.6614C68.5093 39.7148 68.7293 38.8681 69.1693 38.1214C69.6093 37.3614 70.2026 36.7614 70.9493 36.3214C71.7093 35.8814 72.5493 35.6614 73.4693 35.6614C74.3626 35.6614 75.1493 35.8681 75.8293 36.2814C76.5226 36.6948 77.0626 37.2614 77.4493 37.9814C77.8493 38.7014 78.0493 39.5214 78.0493 40.4414C78.0493 40.6014 78.036 40.7681 78.0093 40.9414C77.996 41.1014 77.9693 41.2814 77.9293 41.4814H70.0493V39.6814H76.7893L75.9693 40.4014C75.9426 39.8148 75.8293 39.3214 75.6293 38.9214C75.4293 38.5214 75.1426 38.2148 74.7693 38.0014C74.4093 37.7881 73.9626 37.6814 73.4293 37.6814C72.8693 37.6814 72.3826 37.8014 71.9693 38.0414C71.556 38.2814 71.236 38.6214 71.0093 39.0614C70.7826 39.4881 70.6693 40.0014 70.6693 40.6014C70.6693 41.2014 70.7893 41.7281 71.0293 42.1814C71.2693 42.6348 71.6093 42.9881 72.0493 43.2414C72.4893 43.4814 72.996 43.6014 73.5693 43.6014C74.0626 43.6014 74.516 43.5148 74.9293 43.3414C75.356 43.1681 75.716 42.9148 76.0093 42.5814L77.4093 44.0014C76.9426 44.5481 76.376 44.9614 75.7093 45.2414C75.0426 45.5214 74.336 45.6614 73.5893 45.6614ZM84.2329 45.6614C83.2862 45.6614 82.4262 45.4414 81.6529 45.0014C80.8929 44.5614 80.2929 43.9614 79.8529 43.2014C79.4129 42.4414 79.1929 41.5948 79.1929 40.6614C79.1929 39.7148 79.4129 38.8681 79.8529 38.1214C80.2929 37.3614 80.8929 36.7614 81.6529 36.3214C82.4262 35.8814 83.2862 35.6614 84.2329 35.6614C84.9796 35.6614 85.6729 35.8081 86.3129 36.1014C86.9662 36.3814 87.5196 36.7881 87.9729 37.3214L86.5329 38.7814C86.2529 38.4481 85.9129 38.2014 85.5129 38.0414C85.1262 37.8681 84.6996 37.7814 84.2329 37.7814C83.6862 37.7814 83.1996 37.9081 82.7729 38.1614C82.3596 38.4014 82.0329 38.7348 81.7929 39.1614C81.5662 39.5881 81.4529 40.0881 81.4529 40.6614C81.4529 41.2214 81.5662 41.7214 81.7929 42.1614C82.0329 42.5881 82.3596 42.9281 82.7729 43.1814C83.1996 43.4214 83.6862 43.5414 84.2329 43.5414C84.6996 43.5414 85.1262 43.4614 85.5129 43.3014C85.9129 43.1281 86.2529 42.8748 86.5329 42.5414L87.9729 44.0014C87.5196 44.5348 86.9662 44.9481 86.3129 45.2414C85.6729 45.5214 84.9796 45.6614 84.2329 45.6614ZM90.8627 45.4614V31.8614H93.0627V45.4614H90.8627ZM88.5627 37.8614V35.8614H95.3627V37.8614H88.5627ZM101.148 45.6614C100.188 45.6614 99.3212 45.4481 98.5479 45.0214C97.7879 44.5814 97.1812 43.9814 96.7279 43.2214C96.2879 42.4614 96.0679 41.6081 96.0679 40.6614C96.0679 39.7148 96.2879 38.8681 96.7279 38.1214C97.1679 37.3614 97.7612 36.7614 98.5079 36.3214C99.2679 35.8814 100.108 35.6614 101.028 35.6614C101.921 35.6614 102.708 35.8681 103.388 36.2814C104.081 36.6948 104.621 37.2614 105.008 37.9814C105.408 38.7014 105.608 39.5214 105.608 40.4414C105.608 40.6014 105.595 40.7681 105.568 40.9414C105.555 41.1014 105.528 41.2814 105.488 41.4814H97.6079V39.6814H104.348L103.528 40.4014C103.501 39.8148 103.388 39.3214 103.188 38.9214C102.988 38.5214 102.701 38.2148 102.328 38.0014C101.968 37.7881 101.521 37.6814 100.988 37.6814C100.428 37.6814 99.9412 37.8014 99.5279 38.0414C99.1146 38.2814 98.7946 38.6214 98.5679 39.0614C98.3412 39.4881 98.2279 40.0014 98.2279 40.6014C98.2279 41.2014 98.3479 41.7281 98.5879 42.1814C98.8279 42.6348 99.1679 42.9881 99.6079 43.2414C100.048 43.4814 100.555 43.6014 101.128 43.6014C101.621 43.6014 102.075 43.5148 102.488 43.3414C102.915 43.1681 103.275 42.9148 103.568 42.5814L104.968 44.0014C104.501 44.5481 103.935 44.9614 103.268 45.2414C102.601 45.5214 101.895 45.6614 101.148 45.6614ZM107.371 45.4614V35.8614H109.571V45.4614H107.371ZM109.571 40.1214L108.811 39.7414C108.811 38.5281 109.078 37.5481 109.611 36.8014C110.158 36.0414 110.978 35.6614 112.071 35.6614C112.551 35.6614 112.985 35.7481 113.371 35.9214C113.758 36.0948 114.118 36.3748 114.451 36.7614L113.011 38.2414C112.838 38.0548 112.645 37.9214 112.431 37.8414C112.218 37.7614 111.971 37.7214 111.691 37.7214C111.078 37.7214 110.571 37.9148 110.171 38.3014C109.771 38.6881 109.571 39.2948 109.571 40.1214Z" fill="white"/>
</svg>
