<svg width="139" height="333" viewBox="0 0 139 333" fill="none" xmlns="http://www.w3.org/2000/svg">
<path d="M-77.4849 332.647C-129.997 332.647 -179.51 309.652 -216.903 267.898C-254.297 226.144 -274.89 170.857 -274.89 112.221V-41.1998C-274.89 -99.8352 -254.297 -155.122 -216.903 -196.876C-179.51 -238.631 -129.997 -261.625 -77.4849 -261.625C-24.9731 -261.625 24.54 -238.631 61.9335 -196.876C99.327 -155.122 119.92 -99.8352 119.92 -41.1998V112.221C119.92 170.857 99.327 226.144 61.9335 267.898C24.5392 309.652 -24.974 332.647 -77.4849 332.647ZM-77.4849 -259.817C-185.442 -259.817 -273.272 -161.746 -273.272 -41.1988V112.222C-273.272 232.769 -185.443 330.84 -77.4857 330.84C30.4716 330.84 118.301 232.769 118.301 112.222V-41.1998C118.302 -161.746 30.4716 -259.817 -77.4849 -259.817Z" fill="#E45656"/>
<path d="M105.142 262.099C74.3132 262.099 63.151 273.262 63.151 304.09C63.151 273.262 51.9888 262.099 21.1602 262.099C51.9888 262.099 63.151 250.937 63.151 220.109C63.1516 250.937 74.3132 262.099 105.142 262.099Z" fill="#2C2C2D"/>
<path d="M138.987 114.638C124.304 114.638 118.987 119.954 118.987 134.638C118.987 119.954 113.671 114.638 98.9874 114.638C113.671 114.638 118.987 109.321 118.987 94.6378C118.987 109.321 124.304 114.638 138.987 114.638Z" fill="#2C2C2D"/>
</svg>
