<svg width="123" height="50" viewBox="0 0 123 50" fill="none" xmlns="http://www.w3.org/2000/svg">
<path d="M11.3024 32.6766C15.5423 31.6755 18.1678 27.427 17.1666 23.1873C16.1655 18.9477 11.9168 16.3223 7.67693 17.3234C3.43708 18.3245 0.811592 22.573 1.81274 26.8127C2.81389 31.0523 7.06256 33.6777 11.3024 32.6766Z" fill="#E45656"/>
<path d="M32.0797 14.06V12.16H35.6197C36.3264 12.16 36.8731 11.98 37.2597 11.62C37.6597 11.2467 37.8597 10.7333 37.8597 10.08C37.8597 9.49333 37.6664 9 37.2797 8.6C36.8931 8.2 36.3464 8 35.6397 8H32.0797V6H35.7397C36.6197 6 37.3931 6.18 38.0597 6.54C38.7264 6.88667 39.2397 7.36667 39.5997 7.98C39.9731 8.58 40.1597 9.26667 40.1597 10.04C40.1597 10.8533 39.9731 11.56 39.5997 12.16C39.2397 12.76 38.7264 13.2267 38.0597 13.56C37.3931 13.8933 36.6197 14.06 35.7397 14.06H32.0797ZM30.4997 20V6H32.7997V20H30.4997ZM38.1797 20L33.2797 13.92L35.4197 13.14L41.0797 20H38.1797ZM46.2119 20.2C45.3453 20.2 44.5586 19.98 43.8519 19.54C43.1586 19.1 42.6053 18.5067 42.1919 17.76C41.7919 17 41.5919 16.1533 41.5919 15.22C41.5919 14.2733 41.7919 13.4267 42.1919 12.68C42.6053 11.92 43.1586 11.32 43.8519 10.88C44.5586 10.4267 45.3453 10.2 46.2119 10.2C46.9453 10.2 47.5919 10.36 48.1519 10.68C48.7253 10.9867 49.1786 11.4133 49.5119 11.96C49.8453 12.5067 50.0119 13.1267 50.0119 13.82V16.58C50.0119 17.2733 49.8453 17.8933 49.5119 18.44C49.1919 18.9867 48.7453 19.42 48.1719 19.74C47.5986 20.0467 46.9453 20.2 46.2119 20.2ZM46.5719 18.12C47.3853 18.12 48.0386 17.8467 48.5319 17.3C49.0386 16.7533 49.2919 16.0533 49.2919 15.2C49.2919 14.6267 49.1786 14.12 48.9519 13.68C48.7253 13.24 48.4053 12.9 47.9919 12.66C47.5919 12.4067 47.1186 12.28 46.5719 12.28C46.0386 12.28 45.5653 12.4067 45.1519 12.66C44.7519 12.9 44.4319 13.24 44.1919 13.68C43.9653 14.12 43.8519 14.6267 43.8519 15.2C43.8519 15.7733 43.9653 16.28 44.1919 16.72C44.4319 17.16 44.7519 17.5067 45.1519 17.76C45.5653 18 46.0386 18.12 46.5719 18.12ZM49.1519 20V17.42L49.5319 15.08L49.1519 12.76V10.4H51.3519V20H49.1519ZM60.3735 20V14.46C60.3735 13.82 60.1668 13.2933 59.7535 12.88C59.3535 12.4667 58.8335 12.26 58.1935 12.26C57.7668 12.26 57.3868 12.3533 57.0535 12.54C56.7202 12.7267 56.4602 12.9867 56.2735 13.32C56.0868 13.6533 55.9935 14.0333 55.9935 14.46L55.1335 13.98C55.1335 13.2467 55.2935 12.6 55.6135 12.04C55.9335 11.4667 56.3735 11.02 56.9335 10.7C57.5068 10.3667 58.1468 10.2 58.8535 10.2C59.5735 10.2 60.2135 10.3867 60.7735 10.76C61.3335 11.12 61.7735 11.5933 62.0935 12.18C62.4135 12.7533 62.5735 13.3533 62.5735 13.98V20H60.3735ZM53.7935 20V10.4H55.9935V20H53.7935ZM68.8091 24.2C67.7958 24.2 66.9091 24.0133 66.1491 23.64C65.3891 23.28 64.7758 22.7667 64.3091 22.1L65.7491 20.66C66.1358 21.14 66.5758 21.5 67.0691 21.74C67.5624 21.98 68.1558 22.1 68.8491 22.1C69.7158 22.1 70.4024 21.8733 70.9091 21.42C71.4158 20.98 71.6691 20.3733 71.6691 19.6V17.24L72.0491 15.12L71.6691 12.98V10.4H73.8691V19.6C73.8691 20.52 73.6558 21.32 73.2291 22C72.8024 22.6933 72.2091 23.2333 71.4491 23.62C70.6891 24.0067 69.8091 24.2 68.8091 24.2ZM68.7091 19.8C67.8558 19.8 67.0824 19.5933 66.3891 19.18C65.7091 18.7533 65.1691 18.1733 64.7691 17.44C64.3824 16.7067 64.1891 15.8867 64.1891 14.98C64.1891 14.0733 64.3824 13.26 64.7691 12.54C65.1691 11.82 65.7091 11.2533 66.3891 10.84C67.0824 10.4133 67.8558 10.2 68.7091 10.2C69.4691 10.2 70.1358 10.3533 70.7091 10.66C71.2824 10.9667 71.7291 11.3933 72.0491 11.94C72.3691 12.4733 72.5291 13.1 72.5291 13.82V16.18C72.5291 16.8867 72.3624 17.5133 72.0291 18.06C71.7091 18.6067 71.2624 19.0333 70.6891 19.34C70.1158 19.6467 69.4558 19.8 68.7091 19.8ZM69.1491 17.72C69.6824 17.72 70.1491 17.6067 70.5491 17.38C70.9491 17.1533 71.2558 16.84 71.4691 16.44C71.6958 16.0267 71.8091 15.5467 71.8091 15C71.8091 14.4533 71.6958 13.98 71.4691 13.58C71.2558 13.1667 70.9491 12.8467 70.5491 12.62C70.1491 12.3933 69.6824 12.28 69.1491 12.28C68.6158 12.28 68.1424 12.3933 67.7291 12.62C67.3291 12.8467 67.0158 13.1667 66.7891 13.58C66.5624 13.98 66.4491 14.4533 66.4491 15C66.4491 15.5333 66.5624 16.0067 66.7891 16.42C67.0158 16.8333 67.3291 17.1533 67.7291 17.38C68.1424 17.6067 68.6158 17.72 69.1491 17.72ZM80.773 20.2C79.813 20.2 78.9464 19.9867 78.173 19.56C77.413 19.12 76.8064 18.52 76.353 17.76C75.913 17 75.693 16.1467 75.693 15.2C75.693 14.2533 75.913 13.4067 76.353 12.66C76.793 11.9 77.3864 11.3 78.133 10.86C78.893 10.42 79.733 10.2 80.653 10.2C81.5464 10.2 82.333 10.4067 83.013 10.82C83.7064 11.2333 84.2464 11.8 84.633 12.52C85.033 13.24 85.233 14.06 85.233 14.98C85.233 15.14 85.2197 15.3067 85.193 15.48C85.1797 15.64 85.153 15.82 85.113 16.02H77.233V14.22H83.973L83.153 14.94C83.1264 14.3533 83.013 13.86 82.813 13.46C82.613 13.06 82.3264 12.7533 81.953 12.54C81.593 12.3267 81.1464 12.22 80.613 12.22C80.053 12.22 79.5664 12.34 79.153 12.58C78.7397 12.82 78.4197 13.16 78.193 13.6C77.9664 14.0267 77.853 14.54 77.853 15.14C77.853 15.74 77.973 16.2667 78.213 16.72C78.453 17.1733 78.793 17.5267 79.233 17.78C79.673 18.02 80.1797 18.14 80.753 18.14C81.2464 18.14 81.6997 18.0533 82.113 17.88C82.5397 17.7067 82.8997 17.4533 83.193 17.12L84.593 18.54C84.1264 19.0867 83.5597 19.5 82.893 19.78C82.2264 20.06 81.5197 20.2 80.773 20.2ZM94.508 20V6.4H96.808V20H94.508ZM89.948 8.1V6H101.368V8.1H89.948ZM104.99 20.2C104.057 20.2 103.21 19.98 102.45 19.54C101.69 19.0867 101.084 18.48 100.63 17.72C100.19 16.96 99.9704 16.1133 99.9704 15.18C99.9704 14.2467 100.19 13.4067 100.63 12.66C101.084 11.9133 101.69 11.32 102.45 10.88C103.21 10.4267 104.057 10.2 104.99 10.2C105.937 10.2 106.79 10.42 107.55 10.86C108.31 11.3 108.91 11.9 109.35 12.66C109.804 13.4067 110.03 14.2467 110.03 15.18C110.03 16.1133 109.804 16.96 109.35 17.72C108.91 18.48 108.31 19.0867 107.55 19.54C106.79 19.98 105.937 20.2 104.99 20.2ZM104.99 18.08C105.537 18.08 106.017 17.96 106.43 17.72C106.857 17.4667 107.184 17.12 107.41 16.68C107.65 16.24 107.77 15.74 107.77 15.18C107.77 14.62 107.65 14.1267 107.41 13.7C107.17 13.2733 106.844 12.94 106.43 12.7C106.017 12.4467 105.537 12.32 104.99 12.32C104.457 12.32 103.977 12.4467 103.55 12.7C103.137 12.94 102.81 13.2733 102.57 13.7C102.344 14.1267 102.23 14.62 102.23 15.18C102.23 15.74 102.344 16.24 102.57 16.68C102.81 17.12 103.137 17.4667 103.55 17.72C103.977 17.96 104.457 18.08 104.99 18.08ZM117 20.2C116.267 20.2 115.613 20.0467 115.04 19.74C114.467 19.42 114.013 18.9867 113.68 18.44C113.36 17.8933 113.2 17.2733 113.2 16.58V13.82C113.2 13.1267 113.367 12.5067 113.7 11.96C114.033 11.4133 114.487 10.9867 115.06 10.68C115.633 10.36 116.28 10.2 117 10.2C117.867 10.2 118.647 10.4267 119.34 10.88C120.047 11.32 120.6 11.92 121 12.68C121.413 13.4267 121.62 14.2733 121.62 15.22C121.62 16.1533 121.413 17 121 17.76C120.6 18.5067 120.047 19.1 119.34 19.54C118.647 19.98 117.867 20.2 117 20.2ZM116.64 18.12C117.173 18.12 117.64 18 118.04 17.76C118.453 17.5067 118.773 17.16 119 16.72C119.24 16.28 119.36 15.7733 119.36 15.2C119.36 14.6267 119.24 14.12 119 13.68C118.773 13.24 118.453 12.9 118.04 12.66C117.64 12.4067 117.173 12.28 116.64 12.28C116.107 12.28 115.633 12.4067 115.22 12.66C114.807 12.9 114.487 13.24 114.26 13.68C114.033 14.12 113.92 14.6267 113.92 15.2C113.92 15.7733 114.033 16.28 114.26 16.72C114.487 17.16 114.807 17.5067 115.22 17.76C115.633 18 116.107 18.12 116.64 18.12ZM111.86 24V10.4H114.06V12.98L113.68 15.32L114.06 17.64V24H111.86ZM32.0797 39.72V37.72H35.5797C36.0597 37.72 36.4797 37.6267 36.8397 37.44C37.2131 37.24 37.5064 36.9667 37.7197 36.62C37.9331 36.26 38.0397 35.84 38.0397 35.36C38.0397 34.88 37.9331 34.4667 37.7197 34.12C37.5064 33.76 37.2131 33.4867 36.8397 33.3C36.4797 33.1 36.0597 33 35.5797 33H32.0797V31H35.6997C36.5797 31 37.3664 31.18 38.0597 31.54C38.7664 31.9 39.3197 32.4067 39.7197 33.06C40.1331 33.7133 40.3397 34.48 40.3397 35.36C40.3397 36.24 40.1331 37.0067 39.7197 37.66C39.3197 38.3133 38.7664 38.82 38.0597 39.18C37.3664 39.54 36.5797 39.72 35.6997 39.72H32.0797ZM30.4997 45V31H32.7997V45H30.4997ZM42.27 45V35.4H44.47V45H42.27ZM44.47 39.66L43.71 39.28C43.71 38.0667 43.9767 37.0867 44.51 36.34C45.0567 35.58 45.8767 35.2 46.97 35.2C47.45 35.2 47.8834 35.2867 48.27 35.46C48.6567 35.6333 49.0167 35.9133 49.35 36.3L47.91 37.78C47.7367 37.5933 47.5434 37.46 47.33 37.38C47.1167 37.3 46.87 37.26 46.59 37.26C45.9767 37.26 45.47 37.4533 45.07 37.84C44.67 38.2267 44.47 38.8333 44.47 39.66ZM54.5216 45.2C53.5883 45.2 52.7416 44.98 51.9816 44.54C51.2216 44.0867 50.6149 43.48 50.1616 42.72C49.7216 41.96 49.5016 41.1133 49.5016 40.18C49.5016 39.2467 49.7216 38.4067 50.1616 37.66C50.6149 36.9133 51.2216 36.32 51.9816 35.88C52.7416 35.4267 53.5883 35.2 54.5216 35.2C55.4683 35.2 56.3216 35.42 57.0816 35.86C57.8416 36.3 58.4416 36.9 58.8816 37.66C59.3349 38.4067 59.5616 39.2467 59.5616 40.18C59.5616 41.1133 59.3349 41.96 58.8816 42.72C58.4416 43.48 57.8416 44.0867 57.0816 44.54C56.3216 44.98 55.4683 45.2 54.5216 45.2ZM54.5216 43.08C55.0683 43.08 55.5483 42.96 55.9616 42.72C56.3883 42.4667 56.7149 42.12 56.9416 41.68C57.1816 41.24 57.3016 40.74 57.3016 40.18C57.3016 39.62 57.1816 39.1267 56.9416 38.7C56.7016 38.2733 56.3749 37.94 55.9616 37.7C55.5483 37.4467 55.0683 37.32 54.5216 37.32C53.9883 37.32 53.5083 37.4467 53.0816 37.7C52.6683 37.94 52.3416 38.2733 52.1016 38.7C51.8749 39.1267 51.7616 39.62 51.7616 40.18C51.7616 40.74 51.8749 41.24 52.1016 41.68C52.3416 42.12 52.6683 42.4667 53.0816 42.72C53.5083 42.96 53.9883 43.08 54.5216 43.08ZM62.5777 45V31.4H64.7777V45H62.5777ZM60.2777 37.4V35.4H67.0777V37.4H60.2777ZM72.8629 45.2C71.9029 45.2 71.0362 44.9867 70.2629 44.56C69.5029 44.12 68.8962 43.52 68.4429 42.76C68.0029 42 67.7829 41.1467 67.7829 40.2C67.7829 39.2533 68.0029 38.4067 68.4429 37.66C68.8829 36.9 69.4762 36.3 70.2229 35.86C70.9829 35.42 71.8229 35.2 72.7429 35.2C73.6362 35.2 74.4229 35.4067 75.1029 35.82C75.7962 36.2333 76.3362 36.8 76.7229 37.52C77.1229 38.24 77.3229 39.06 77.3229 39.98C77.3229 40.14 77.3095 40.3067 77.2829 40.48C77.2695 40.64 77.2429 40.82 77.2029 41.02H69.3229V39.22H76.0629L75.2429 39.94C75.2162 39.3533 75.1029 38.86 74.9029 38.46C74.7029 38.06 74.4162 37.7533 74.0429 37.54C73.6829 37.3267 73.2362 37.22 72.7029 37.22C72.1429 37.22 71.6562 37.34 71.2429 37.58C70.8295 37.82 70.5095 38.16 70.2829 38.6C70.0562 39.0267 69.9429 39.54 69.9429 40.14C69.9429 40.74 70.0629 41.2667 70.3029 41.72C70.5429 42.1733 70.8829 42.5267 71.3229 42.78C71.7629 43.02 72.2695 43.14 72.8429 43.14C73.3362 43.14 73.7895 43.0533 74.2029 42.88C74.6295 42.7067 74.9895 42.4533 75.2829 42.12L76.6829 43.54C76.2162 44.0867 75.6495 44.5 74.9829 44.78C74.3162 45.06 73.6095 45.2 72.8629 45.2ZM83.5065 45.2C82.5598 45.2 81.6998 44.98 80.9265 44.54C80.1665 44.1 79.5665 43.5 79.1265 42.74C78.6865 41.98 78.4665 41.1333 78.4665 40.2C78.4665 39.2533 78.6865 38.4067 79.1265 37.66C79.5665 36.9 80.1665 36.3 80.9265 35.86C81.6998 35.42 82.5598 35.2 83.5065 35.2C84.2531 35.2 84.9465 35.3467 85.5865 35.64C86.2398 35.92 86.7931 36.3267 87.2465 36.86L85.8065 38.32C85.5265 37.9867 85.1865 37.74 84.7865 37.58C84.3998 37.4067 83.9731 37.32 83.5065 37.32C82.9598 37.32 82.4731 37.4467 82.0465 37.7C81.6331 37.94 81.3065 38.2733 81.0665 38.7C80.8398 39.1267 80.7265 39.6267 80.7265 40.2C80.7265 40.76 80.8398 41.26 81.0665 41.7C81.3065 42.1267 81.6331 42.4667 82.0465 42.72C82.4731 42.96 82.9598 43.08 83.5065 43.08C83.9731 43.08 84.3998 43 84.7865 42.84C85.1865 42.6667 85.5265 42.4133 85.8065 42.08L87.2465 43.54C86.7931 44.0733 86.2398 44.4867 85.5865 44.78C84.9465 45.06 84.2531 45.2 83.5065 45.2ZM90.1363 45V31.4H92.3363V45H90.1363ZM87.8363 37.4V35.4H94.6363V37.4H87.8363ZM100.421 45.2C99.4615 45.2 98.5948 44.9867 97.8215 44.56C97.0615 44.12 96.4548 43.52 96.0015 42.76C95.5615 42 95.3415 41.1467 95.3415 40.2C95.3415 39.2533 95.5615 38.4067 96.0015 37.66C96.4415 36.9 97.0348 36.3 97.7815 35.86C98.5415 35.42 99.3815 35.2 100.301 35.2C101.195 35.2 101.981 35.4067 102.661 35.82C103.355 36.2333 103.895 36.8 104.281 37.52C104.681 38.24 104.881 39.06 104.881 39.98C104.881 40.14 104.868 40.3067 104.841 40.48C104.828 40.64 104.801 40.82 104.761 41.02H96.8815V39.22H103.621L102.801 39.94C102.775 39.3533 102.661 38.86 102.461 38.46C102.261 38.06 101.975 37.7533 101.601 37.54C101.241 37.3267 100.795 37.22 100.261 37.22C99.7015 37.22 99.2148 37.34 98.8015 37.58C98.3881 37.82 98.0681 38.16 97.8415 38.6C97.6148 39.0267 97.5015 39.54 97.5015 40.14C97.5015 40.74 97.6215 41.2667 97.8615 41.72C98.1015 42.1733 98.4415 42.5267 98.8815 42.78C99.3215 43.02 99.8281 43.14 100.401 43.14C100.895 43.14 101.348 43.0533 101.761 42.88C102.188 42.7067 102.548 42.4533 102.841 42.12L104.241 43.54C103.775 44.0867 103.208 44.5 102.541 44.78C101.875 45.06 101.168 45.2 100.421 45.2ZM106.645 45V35.4H108.845V45H106.645ZM108.845 39.66L108.085 39.28C108.085 38.0667 108.352 37.0867 108.885 36.34C109.432 35.58 110.252 35.2 111.345 35.2C111.825 35.2 112.258 35.2867 112.645 35.46C113.032 35.6333 113.392 35.9133 113.725 36.3L112.285 37.78C112.112 37.5933 111.918 37.46 111.705 37.38C111.492 37.3 111.245 37.26 110.965 37.26C110.352 37.26 109.845 37.4533 109.445 37.84C109.045 38.2267 108.845 38.8333 108.845 39.66Z" fill="#2C2C2D"/>
</svg>
