<svg width="19" height="18" viewBox="0 0 19 18" fill="none" xmlns="http://www.w3.org/2000/svg">
<path d="M5.70193 0H13.2619C16.1419 0 18.4819 2.34 18.4819 5.22V12.78C18.4819 14.1644 17.932 15.4922 16.953 16.4711C15.9741 17.45 14.6464 18 13.2619 18H5.70193C2.82193 18 0.481934 15.66 0.481934 12.78V5.22C0.481934 3.83557 1.0319 2.50784 2.01084 1.5289C2.98978 0.549963 4.3175 0 5.70193 0ZM5.52193 1.8C4.66263 1.8 3.83853 2.14136 3.23091 2.74897C2.62329 3.35659 2.28193 4.1807 2.28193 5.04V12.96C2.28193 14.751 3.73093 16.2 5.52193 16.2H13.4419C14.3012 16.2 15.1253 15.8586 15.733 15.251C16.3406 14.6434 16.6819 13.8193 16.6819 12.96V5.04C16.6819 3.249 15.2329 1.8 13.4419 1.8H5.52193ZM14.2069 3.15C14.5053 3.15 14.7915 3.26853 15.0024 3.4795C15.2134 3.69048 15.3319 3.97663 15.3319 4.275C15.3319 4.57337 15.2134 4.85952 15.0024 5.0705C14.7915 5.28147 14.5053 5.4 14.2069 5.4C13.9086 5.4 13.6224 5.28147 13.4114 5.0705C13.2005 4.85952 13.0819 4.57337 13.0819 4.275C13.0819 3.97663 13.2005 3.69048 13.4114 3.4795C13.6224 3.26853 13.9086 3.15 14.2069 3.15ZM9.48193 4.5C10.6754 4.5 11.82 4.97411 12.6639 5.81802C13.5078 6.66193 13.9819 7.80653 13.9819 9C13.9819 10.1935 13.5078 11.3381 12.6639 12.182C11.82 13.0259 10.6754 13.5 9.48193 13.5C8.28846 13.5 7.14387 13.0259 6.29995 12.182C5.45604 11.3381 4.98193 10.1935 4.98193 9C4.98193 7.80653 5.45604 6.66193 6.29995 5.81802C7.14387 4.97411 8.28846 4.5 9.48193 4.5ZM9.48193 6.3C8.76585 6.3 8.07909 6.58446 7.57274 7.09081C7.0664 7.59716 6.78193 8.28392 6.78193 9C6.78193 9.71608 7.0664 10.4028 7.57274 10.9092C8.07909 11.4155 8.76585 11.7 9.48193 11.7C10.198 11.7 10.8848 11.4155 11.3911 10.9092C11.8975 10.4028 12.1819 9.71608 12.1819 9C12.1819 8.28392 11.8975 7.59716 11.3911 7.09081C10.8848 6.58446 10.198 6.3 9.48193 6.3Z" fill="white"/>
</svg>
