<svg width="20" height="21" viewBox="0 0 20 21" fill="none" xmlns="http://www.w3.org/2000/svg">
<g clip-path="url(#clip0_22_4747)">
<path d="M10 0.913818C7.28625 0.913818 6.945 0.926318 5.87875 0.973818C4.8125 1.02382 4.08625 1.19132 3.45 1.43882C2.78262 1.68984 2.17811 2.0836 1.67875 2.59257C1.1701 3.09219 0.776384 3.69662 0.525 4.36382C0.2775 4.99882 0.10875 5.72632 0.06 6.78882C0.0125 7.85757 0 8.19757 0 10.9151C0 13.6301 0.0125 13.9701 0.06 15.0363C0.11 16.1013 0.2775 16.8276 0.525 17.4638C0.78125 18.1213 1.1225 18.6788 1.67875 19.2351C2.23375 19.7913 2.79125 20.1338 3.44875 20.3888C4.08625 20.6363 4.81125 20.8051 5.87625 20.8538C6.94375 20.9013 7.28375 20.9138 10 20.9138C12.7163 20.9138 13.055 20.9013 14.1225 20.8538C15.1863 20.8038 15.915 20.6363 16.5513 20.3888C17.2182 20.1377 17.8223 19.7439 18.3212 19.2351C18.8775 18.6788 19.2188 18.1213 19.475 17.4638C19.7213 16.8276 19.89 16.1013 19.94 15.0363C19.9875 13.9701 20 13.6301 20 10.9138C20 8.19757 19.9875 7.85757 19.94 6.79007C19.89 5.72632 19.7213 4.99882 19.475 4.36382C19.2237 3.6966 18.8299 3.09216 18.3212 2.59257C17.822 2.08341 17.2175 1.68963 16.55 1.43882C15.9125 1.19132 15.185 1.02257 14.1213 0.973818C13.0538 0.926318 12.715 0.913818 9.9975 0.913818H10.0013H10ZM9.10375 2.71632H10.0013C12.6713 2.71632 12.9875 2.72507 14.0413 2.77382C15.0162 2.81757 15.5462 2.98132 15.8988 3.11757C16.365 3.29882 16.6987 3.51632 17.0487 3.86632C17.3988 4.21632 17.615 4.54882 17.7963 5.01632C17.9338 5.36757 18.0963 5.89757 18.14 6.87257C18.1887 7.92632 18.1987 8.24257 18.1987 10.9113C18.1987 13.5801 18.1887 13.8976 18.14 14.9513C18.0963 15.9263 17.9325 16.4551 17.7963 16.8076C17.6359 17.2418 17.38 17.6344 17.0475 17.9563C16.6975 18.3063 16.365 18.5226 15.8975 18.7038C15.5475 18.8413 15.0175 19.0038 14.0413 19.0488C12.9875 19.0963 12.6713 19.1076 10.0013 19.1076C7.33125 19.1076 7.01375 19.0963 5.96 19.0488C4.985 19.0038 4.45625 18.8413 4.10375 18.7038C3.66937 18.5437 3.27641 18.2883 2.95375 17.9563C2.62094 17.6339 2.36465 17.2409 2.20375 16.8063C2.0675 16.4551 1.90375 15.9251 1.86 14.9501C1.8125 13.8963 1.8025 13.5801 1.8025 10.9088C1.8025 8.23882 1.8125 7.92382 1.86 6.87007C1.905 5.89507 2.0675 5.36507 2.205 5.01257C2.38625 4.54632 2.60375 4.21257 2.95375 3.86257C3.30375 3.51257 3.63625 3.29632 4.10375 3.11507C4.45625 2.97757 4.985 2.81507 5.96 2.77007C6.8825 2.72757 7.24 2.71507 9.10375 2.71382V2.71632ZM15.3387 4.37632C15.1812 4.37632 15.0251 4.40736 14.8795 4.46766C14.7339 4.52797 14.6017 4.61636 14.4902 4.72779C14.3788 4.83922 14.2904 4.97151 14.2301 5.1171C14.1698 5.26269 14.1388 5.41873 14.1388 5.57632C14.1388 5.7339 14.1698 5.88995 14.2301 6.03554C14.2904 6.18113 14.3788 6.31342 14.4902 6.42485C14.6017 6.53628 14.7339 6.62467 14.8795 6.68497C15.0251 6.74528 15.1812 6.77632 15.3387 6.77632C15.657 6.77632 15.9622 6.64989 16.1873 6.42485C16.4123 6.1998 16.5387 5.89458 16.5387 5.57632C16.5387 5.25806 16.4123 4.95283 16.1873 4.72779C15.9622 4.50275 15.657 4.37632 15.3387 4.37632ZM10.0013 5.77882C9.32009 5.76819 8.64362 5.89318 8.01122 6.14649C7.37883 6.39981 6.80314 6.77641 6.31769 7.25435C5.83223 7.73229 5.4467 8.30203 5.18355 8.93039C4.9204 9.55876 4.78488 10.2332 4.78488 10.9144C4.78488 11.5957 4.9204 12.2701 5.18355 12.8985C5.4467 13.5269 5.83223 14.0966 6.31769 14.5745C6.80314 15.0525 7.37883 15.4291 8.01122 15.6824C8.64362 15.9357 9.32009 16.0607 10.0013 16.0501C11.3494 16.029 12.6353 15.4787 13.5812 14.5179C14.5272 13.5571 15.0574 12.2628 15.0574 10.9144C15.0574 9.5661 14.5272 8.27183 13.5812 7.31101C12.6353 6.35018 11.3494 5.79985 10.0013 5.77882ZM10.0013 7.58007C10.8854 7.58007 11.7334 7.9313 12.3586 8.5565C12.9838 9.1817 13.335 10.0297 13.335 10.9138C13.335 11.798 12.9838 12.6459 12.3586 13.2711C11.7334 13.8963 10.8854 14.2476 10.0013 14.2476C9.11709 14.2476 8.26913 13.8963 7.64393 13.2711C7.01873 12.6459 6.6675 11.798 6.6675 10.9138C6.6675 10.0297 7.01873 9.1817 7.64393 8.5565C8.26913 7.9313 9.11709 7.58007 10.0013 7.58007Z" fill="#EA1717"/>
</g>
<defs>
<clipPath id="clip0_22_4747">
<rect width="20" height="20" fill="white" transform="translate(0 0.913818)"/>
</clipPath>
</defs>
</svg>
