<svg width="19" height="18" viewBox="0 0 19 18" fill="none" xmlns="http://www.w3.org/2000/svg">
<path d="M6.81793 17.586C7.68193 17.847 8.55493 18 9.48193 18C11.8689 18 14.1581 17.0518 15.8459 15.364C17.5337 13.6761 18.4819 11.3869 18.4819 9C18.4819 7.8181 18.2491 6.64778 17.7969 5.55585C17.3446 4.46392 16.6816 3.47177 15.8459 2.63604C15.0102 1.80031 14.018 1.13738 12.9261 0.685084C11.8342 0.232792 10.6638 0 9.48193 0C8.30004 0 7.12971 0.232792 6.03778 0.685084C4.94585 1.13738 3.9537 1.80031 3.11797 2.63604C1.43015 4.32387 0.481934 6.61305 0.481934 9C0.481934 12.825 2.88493 16.11 6.27793 17.406C6.19693 16.704 6.11593 15.543 6.27793 14.742L7.31293 10.296C7.31293 10.296 7.05193 9.774 7.05193 8.946C7.05193 7.704 7.82593 6.777 8.70793 6.777C9.48193 6.777 9.84193 7.344 9.84193 8.073C9.84193 8.847 9.32893 9.954 9.06793 11.016C8.91493 11.898 9.53593 12.672 10.4359 12.672C12.0379 12.672 13.2799 10.962 13.2799 8.55C13.2799 6.39 11.7319 4.914 9.50893 4.914C6.97093 4.914 5.47693 6.804 5.47693 8.793C5.47693 9.567 5.72893 10.35 6.14293 10.863C6.22393 10.917 6.22393 10.989 6.19693 11.124L5.93593 12.105C5.93593 12.258 5.83693 12.312 5.68393 12.204C4.53193 11.7 3.86593 10.062 3.86593 8.739C3.86593 5.895 5.88193 3.312 9.76993 3.312C12.8659 3.312 15.2779 5.535 15.2779 8.487C15.2779 11.583 13.3609 14.067 10.6159 14.067C9.74293 14.067 8.88793 13.599 8.58193 13.05L7.97893 15.183C7.77193 15.957 7.20493 16.992 6.81793 17.613V17.586Z" fill="white"/>
</svg>
