<svg width="14" height="16" viewBox="0 0 14 16" fill="none" xmlns="http://www.w3.org/2000/svg">
<path d="M11.5 15.9448C10.875 15.9448 10.3438 15.7261 9.90625 15.2886C9.46875 14.8511 9.25 14.3198 9.25 13.6948C9.25 13.6073 9.25625 13.5166 9.26875 13.4226C9.28125 13.3286 9.3 13.2443 9.325 13.1698L4.0375 10.0948C3.825 10.2823 3.5875 10.4293 3.325 10.5358C3.0625 10.6423 2.7875 10.6953 2.5 10.6948C1.875 10.6948 1.34375 10.4761 0.90625 10.0386C0.46875 9.60107 0.25 9.06982 0.25 8.44482C0.25 7.81982 0.46875 7.28857 0.90625 6.85107C1.34375 6.41357 1.875 6.19482 2.5 6.19482C2.7875 6.19482 3.0625 6.24807 3.325 6.35457C3.5875 6.46107 3.825 6.60782 4.0375 6.79482L9.325 3.71982C9.3 3.64482 9.28125 3.56057 9.26875 3.46707C9.25625 3.37357 9.25 3.28282 9.25 3.19482C9.25 2.56982 9.46875 2.03857 9.90625 1.60107C10.3438 1.16357 10.875 0.944824 11.5 0.944824C12.125 0.944824 12.6562 1.16357 13.0938 1.60107C13.5312 2.03857 13.75 2.56982 13.75 3.19482C13.75 3.81982 13.5312 4.35107 13.0938 4.78857C12.6562 5.22607 12.125 5.44482 11.5 5.44482C11.2125 5.44482 10.9375 5.39182 10.675 5.28582C10.4125 5.17982 10.175 5.03282 9.9625 4.84482L4.675 7.91982C4.7 7.99482 4.71875 8.07932 4.73125 8.17332C4.74375 8.26732 4.75 8.35782 4.75 8.44482C4.75 8.53182 4.74375 8.62257 4.73125 8.71707C4.71875 8.81157 4.7 8.89582 4.675 8.96982L9.9625 12.0448C10.175 11.8573 10.4125 11.7106 10.675 11.6046C10.9375 11.4986 11.2125 11.4453 11.5 11.4448C12.125 11.4448 12.6562 11.6636 13.0938 12.1011C13.5312 12.5386 13.75 13.0698 13.75 13.6948C13.75 14.3198 13.5312 14.8511 13.0938 15.2886C12.6562 15.7261 12.125 15.9448 11.5 15.9448Z" fill="#2C2C2D"/>
</svg>
