<svg width="19" height="16" viewBox="0 0 19 16" fill="none" xmlns="http://www.w3.org/2000/svg">
<path d="M18.4819 2.40727C17.8194 2.70842 17.1053 2.90632 16.3653 3.00096C17.1225 2.54494 17.7076 1.82219 17.9829 0.953162C17.2687 1.38337 16.4772 1.68452 15.6425 1.8566C14.9628 1.11664 14.0077 0.686432 12.9236 0.686432C10.9016 0.686432 9.24962 2.33844 9.24962 4.37764C9.24962 4.67018 9.28404 4.95412 9.34427 5.22085C6.28117 5.06597 3.55364 3.59465 1.73815 1.36616C1.41979 1.90823 1.2391 2.54494 1.2391 3.21607C1.2391 4.4981 1.88442 5.63385 2.88251 6.27917C2.27161 6.27917 1.70373 6.10708 1.20469 5.84896V5.87477C1.20469 7.66444 2.47811 9.16158 4.16453 9.49714C3.62319 9.64594 3.05462 9.66656 2.50392 9.55737C2.73762 10.2909 3.1953 10.9327 3.81264 11.3926C4.42997 11.8525 5.17591 12.1074 5.9456 12.1214C4.64092 13.1544 3.02362 13.7127 1.35956 13.7046C1.06702 13.7046 0.774477 13.6874 0.481934 13.653C2.11673 14.7027 4.06128 15.3136 6.1435 15.3136C12.9236 15.3136 16.6492 9.68643 16.6492 4.80785C16.6492 4.64437 16.6492 4.48949 16.6406 4.32601C17.3634 3.80976 17.9829 3.15584 18.4819 2.40727Z" fill="white"/>
</svg>
